<svg xmlns="http://www.w3.org/2000/svg" viewBox="0 0 1024 1024" fill="none">
  <defs>
    <linearGradient id="shell" x1="180" y1="120" x2="860" y2="900" gradientUnits="userSpaceOnUse">
      <stop stop-color="#11100E"/>
      <stop offset="0.55" stop-color="#11100E"/>
      <stop offset="1" stop-color="#16141C"/>
    </linearGradient>
  </defs>
  <rect x="64" y="64" width="896" height="896" rx="200" fill="url(#shell)"/>
  <rect x="64" y="64" width="896" height="896" rx="200" stroke="#2DD4BF" stroke-opacity="0.22" stroke-width="10" fill="none"/>
  <g transform="translate(512 512) scale(2.55) translate(-128 -128)">
    <path fill="#F6F1E8" d="M78 98c0-42 22-62 50-62s50 20 50 62v74c-6 18-20 12-32 8-8 8-12 22-16 22s-8-14-16-22c-12 4-26 10-32-8V98Z"/>
    <rect x="98" y="86" width="18" height="34" rx="9" fill="#11100E"/>
    <rect x="140" y="86" width="18" height="34" rx="9" fill="#11100E"/>
    <rect x="91" y="142" width="10" height="16" rx="5" fill="#2DD4BF"/>
    <rect x="107" y="134" width="10" height="24" rx="5" fill="#2DD4BF"/>
    <rect x="123" y="124" width="10" height="34" rx="5" fill="#2DD4BF"/>
    <rect x="139" y="134" width="10" height="24" rx="5" fill="#2DD4BF"/>
    <rect x="155" y="142" width="10" height="16" rx="5" fill="#2DD4BF"/>
  </g>
</svg>
